<svg xmlns="http://www.w3.org/2000/svg" version="1.1" xmlns:xlink="http://www.w3.org/1999/xlink" width="512" height="512" x="0" y="0" viewBox="0 0 512 512" style="enable-background:new 0 0 512 512" xml:space="preserve" class=""><g><path fill="#65befc" d="M245 16.5c-101.237 0-188.126 61.405-225.469 149-1.744 4.091 33.213 95.421 33.213 143.723 0 29.345-11.11 88.972-9.275 91.622a246.374 246.374 0 0 0 32.044 37.562c2.295 2.199 8.298-6.229 10.677-4.12 33.61 29.805 75.471 50.511 121.725 58.255 3.911.655 4.188 11.801 8.159 12.268a247.48 247.48 0 0 0 28.924 1.69c7.903 0 15.718-.374 23.429-1.106 3.675-.349 6.25-9.111 9.876-9.621 47.954-6.734 91.454-27.351 126.306-57.657 2.998-2.607 7.008 3.048 9.876.3C461.024 393.822 490 331.045 490 261.5c0-135.31-109.69-245-245-245z" opacity="1" data-original="#65befc" class=""></path><path fill="#00429c" d="M375.255 116.269h-92.851c-16.569 0-30 13.431-30 30v60c0 16.569 13.431 30 30 30h92.851c16.569 0 30-13.431 30-30v-60c0-16.569-13.431-30-30-30zM207.766 116.269H89.319c-16.569 0-30 13.431-30 30v60c0 16.569 13.431 30 30 30h118.447c16.569 0 30-13.431 30-30v-60c0-16.569-13.431-30-30-30z" opacity="1" data-original="#00429c"></path><path fill="#d9e7ec" d="M178.498 99.304h12.544c12.987 0 23.516 10.528 23.516 23.516v57.084h-36.06z" opacity="1" data-original="#d9e7ec" class=""></path><path fill="#a44f3e" d="M424.844 138.173c-4.686-4.686-4.767-12.203-.181-16.79l15.38-15.38c4.587-4.587 12.104-4.505 16.79.181s4.767 12.203.181 16.79l-15.38 15.38c-4.586 4.586-12.104 4.504-16.79-.181z" opacity="1" data-original="#a44f3e"></path><path fill="#bb5d4c" d="M463.812 99.205c-4.686-4.686-12.203-4.767-16.79-.181l-1.239 1.239a5 5 0 0 0-9.272 2.599v10c0 .241.017.479.051.711a12.085 12.085 0 0 0 3.542 9.34c4.686 4.686 12.203 4.767 16.79.181l7.099-7.1c4.587-4.586 4.505-12.103-.181-16.789z" opacity="1" data-original="#bb5d4c" class=""></path><g fill="#ffb509"><path d="m441.756 138.231-37.441 37.441c-4.587 4.587-12.104 4.505-16.79-.181s-4.767-12.203-.181-16.79l37.441-37.441zM311.502 99.304h-12.544c-12.987 0-23.516 10.528-23.516 23.516v46.361h36.06z" fill="#ffb509" opacity="1" data-original="#ffb509"></path><path d="M371.413 99.304h12.544c12.987 0 23.516 10.528 23.516 23.516v46.361h-36.06z" fill="#ffb509" opacity="1" data-original="#ffb509"></path></g><path fill="#ffc143" d="m383.957 99.304-18.599-3.508a127.683 127.683 0 0 0-23.659-2.212h-.125c-1.789.002-5.016.104-5.016.104-6.213.25-12.402.955-18.518 2.108l-18.599 3.508V230.605h84.516v-83.191z" opacity="1" data-original="#ffc143"></path><path fill="#a44f3e" d="M341.457 113.159c-6.627 0-12-5.373-12-12V76.223c0-6.627 5.373-12 12-12s12 5.373 12 12v24.936c0 6.628-5.372 12-12 12z" opacity="1" data-original="#a44f3e"></path><path fill="#a44f3e" d="M353.799 88.536a36.742 36.742 0 0 1-12.342 2.12c-20.33 0-36.811-16.481-36.811-36.811V42.311c0-20.33 16.481-36.811 36.811-36.811 4.329 0 8.484.747 12.342 2.12.683.243.683 80.673 0 80.916z" opacity="1" data-original="#a44f3e"></path><path fill="#bb5d4c" d="M353.799 7.62c-14.193 5-24.341 18.293-24.341 33.907v13.101c0 15.614 10.149 28.907 24.342 33.907 14.26-5.073 24.469-18.689 24.469-34.69V42.311c-.001-16.001-10.21-29.617-24.47-34.691z" opacity="1" data-original="#bb5d4c" class=""></path><path fill="#d9e7ec" d="M118.587 99.304h-12.544c-12.987 0-23.516 10.528-23.516 23.516v57.94h36.06z" opacity="1" data-original="#d9e7ec" class=""></path><path fill="#ffffff" d="m191.043 99.304-18.706-3.508a129.129 129.129 0 0 0-23.794-2.212h-.125c-1.799.002-5.045.104-5.045.104-6.249.25-12.473.955-18.624 2.108l-18.706 3.508V230.605h85v-83.191z" opacity="1" data-original="#ffffff" class=""></path><path fill="#f6a96c" d="M148.543 113.159c-6.627 0-12-5.373-12-12V76.223c0-6.627 5.373-12 12-12s12 5.373 12 12v24.936c0 6.628-5.373 12-12 12z" opacity="1" data-original="#f6a96c" class=""></path><path fill="#f6a96c" d="M160.884 88.536a36.742 36.742 0 0 1-12.342 2.12c-20.33 0-36.811-16.481-36.811-36.811V42.311c0-20.33 16.481-36.811 36.811-36.811 4.329 0 8.484.747 12.342 2.12.683.243.683 80.673 0 80.916z" opacity="1" data-original="#f6a96c" class=""></path><path fill="#ffbd86" d="M160.884 7.62c-14.193 5-24.341 18.293-24.341 33.907v13.101c0 15.614 10.149 28.907 24.342 33.907 14.26-5.073 24.469-18.689 24.469-34.69V42.311c-.001-16.001-10.21-29.617-24.47-34.691z" opacity="1" data-original="#ffbd86" class=""></path><path fill="#a44f3e" d="M427.06 262.812H268.058c-47.74 0-88.499-34.48-96.411-81.561a18.88 18.88 0 0 0-18.619-15.751H19.531C6.962 194.981 0 227.427 0 261.5c0 51.771 16.071 99.779 43.477 139.34H502c5.523 0 10-4.477 10-10v-43.088c0-46.911-38.029-84.94-84.94-84.94z" opacity="1" data-original="#a44f3e"></path><path fill="#bb5d4c" d="M502 370.125H155.057c-56.505 0-102.312-45.807-102.312-102.312 0-56.505 45.807-102.312 102.312-102.312H502c5.523 0 10 4.477 10 10v184.625c0 5.521-4.477 9.999-10 9.999z" opacity="1" data-original="#bb5d4c" class=""></path><path fill="#d9e7ec" d="M190.558 202.308v-52.949c0-6.486 5.373-11.745 12-11.745s12 5.258 12 11.745v52.949zM325 295.5h-70a5 5 0 0 1-5-5v-90a5 5 0 0 1 5-5h70a5 5 0 0 1 5 5v90a5 5 0 0 1-5 5z" opacity="1" data-original="#d9e7ec" class=""></path><path fill="#ffffff" d="M365 315.5h-70a5 5 0 0 1-5-5v-90a5 5 0 0 1 5-5h70a5 5 0 0 1 5 5v90a5 5 0 0 1-5 5z" opacity="1" data-original="#ffffff" class=""></path><path fill="#00429c" d="M402.197 243.303a7.5 7.5 0 0 1 0-10.607l31.82-31.82a7.5 7.5 0 0 1 10.607 10.607l-31.82 31.82a7.5 7.5 0 0 1-10.607 0z" opacity="1" data-original="#00429c"></path><path fill="#ffb509" d="M477.803 290.123a7.5 7.5 0 0 1-10.607 0l-31.82-31.82a7.5 7.5 0 0 1 10.607-10.607l31.82 31.82a7.5 7.5 0 0 1 0 10.607z" opacity="1" data-original="#ffb509"></path><path fill="#b6c4cf" d="M125 315.5H55a5 5 0 0 1-5-5v-90a5 5 0 0 1 5-5h70a5 5 0 0 1 5 5v90a5 5 0 0 1-5 5z" opacity="1" data-original="#b6c4cf"></path><path fill="#d9e7ec" d="M195 315.5h-70a5 5 0 0 1-5-5v-90a5 5 0 0 1 5-5h70a5 5 0 0 1 5 5v90a5 5 0 0 1-5 5z" opacity="1" data-original="#d9e7ec" class=""></path><path fill="#ffb509" d="M299.442 202.308v-52.949c0-6.486-5.373-11.745-12-11.745s-12 5.258-12 11.745v52.949z" opacity="1" data-original="#ffb509"></path><path fill="#a44f3e" d="M287.442 190.391c-6.627 0-12 5.258-12 11.745v21.75c0 6.487 5.373 11.745 12 11.745s12-5.258 12-11.745v-21.75c0-6.487-5.374-11.745-12-11.745z" opacity="1" data-original="#a44f3e"></path><path fill="#bb5d4c" d="M287.442 211.971a12.08 12.08 0 0 0-9.109 4.1 4.916 4.916 0 0 0-.538.467l-7.071 7.071a5 5 0 0 0 4.719 8.394v1.752c0 6.486 5.373 11.745 12 11.745s12-5.258 12-11.745v-10.04c-.001-6.486-5.374-11.744-12.001-11.744z" opacity="1" data-original="#bb5d4c" class=""></path><path fill="#f6a96c" d="M341.457 376.737c-6.627 0-12-5.373-12-12v-24.936c0-6.627 5.373-12 12-12s12 5.373 12 12v24.936c0 6.628-5.372 12-12 12z" opacity="1" data-original="#f6a96c" class=""></path><path fill="#f6a96c" d="M353.799 352.114a36.742 36.742 0 0 1-12.342 2.12c-20.33 0-36.811-16.481-36.811-36.811v-11.534c0-20.33 16.481-36.811 36.811-36.811 4.329 0 8.484.747 12.342 2.12.683.243.683 80.673 0 80.916z" opacity="1" data-original="#f6a96c" class=""></path><path fill="#ffbd86" d="M353.799 271.198c-14.193 5-24.341 18.293-24.341 33.907v13.101c0 15.614 10.149 28.907 24.342 33.907 14.26-5.073 24.469-18.689 24.469-34.69v-11.534c-.001-16.001-10.21-29.617-24.47-34.691z" opacity="1" data-original="#ffbd86" class=""></path><path fill="#d9e7ec" d="M311.502 362.882h-12.544c-12.987 0-23.516 10.528-23.516 23.516v24.778h36.06zM371.413 362.882h12.544c12.987 0 23.516 10.528 23.516 23.516v24.778h-36.06z" opacity="1" data-original="#d9e7ec" class=""></path><path fill="#ffffff" d="m383.957 362.882-18.706-3.508a129.129 129.129 0 0 0-23.794-2.212h-.125c-1.799.002-5.045.104-5.045.104-6.249.25-12.473.955-18.624 2.108l-18.706 3.508V423.478h85v-12.486z" opacity="1" data-original="#ffffff" class=""></path><path fill="#f6a96c" d="M148.543 376.737c-6.627 0-12-5.373-12-12v-24.936c0-6.627 5.373-12 12-12s12 5.373 12 12v24.936c0 6.628-5.373 12-12 12z" opacity="1" data-original="#f6a96c" class=""></path><path fill="#f6a96c" d="M160.884 352.114a36.742 36.742 0 0 1-12.342 2.12c-20.33 0-36.811-16.481-36.811-36.811v-11.534c0-20.33 16.481-36.811 36.811-36.811 4.329 0 8.484.747 12.342 2.12.683.243.683 80.673 0 80.916z" opacity="1" data-original="#f6a96c" class=""></path><path fill="#ffbd86" d="M160.884 271.198c-14.193 5-24.341 18.293-24.341 33.907v13.101c0 15.614 10.149 28.907 24.342 33.907 14.26-5.073 24.469-18.689 24.469-34.69v-11.534c-.001-16.001-10.21-29.617-24.47-34.691z" opacity="1" data-original="#ffbd86" class=""></path><path fill="#00b327" d="M118.587 362.882h-12.544c-12.987 0-23.516 10.528-23.516 23.516v24.778h36.06zM178.498 362.882h12.544c12.987 0 23.516 10.528 23.516 23.516v24.778h-36.06z" opacity="1" data-original="#00b327"></path><path fill="#00c53b" d="m191.043 362.882-18.706-3.508a129.129 129.129 0 0 0-23.794-2.212h-.125c-1.799.002-5.045.104-5.045.104-6.249.25-12.473.955-18.624 2.108l-18.706 3.508v62.791h85v-14.681z" opacity="1" data-original="#00c53b"></path><path fill="#f6a96c" d="M202.558 190.391c6.627 0 12 5.258 12 11.745v21.75c0 6.487-5.373 11.745-12 11.745s-12-5.258-12-11.745v-21.75c0-6.487 5.374-11.745 12-11.745z" opacity="1" data-original="#f6a96c" class=""></path><path fill="#ffbd86" d="M219.277 223.608s-7.422-7.397-7.609-7.538a12.08 12.08 0 0 0-9.109-4.1c-6.627 0-12 5.258-12 11.745v10.04c0 6.486 5.373 11.745 12 11.745s12-5.258 12-11.745v-1.752a5 5 0 0 0 4.718-8.395z" opacity="1" data-original="#ffbd86" class=""></path><path fill="#d9e7ec" d="M106.527 202.308v-52.949c0-6.486-5.373-11.745-12-11.745s-12 5.258-12 11.745v52.949z" opacity="1" data-original="#d9e7ec" class=""></path><path fill="#f6a96c" d="M94.527 190.391c-6.627 0-12 5.258-12 11.745v21.75c0 6.487 5.373 11.745 12 11.745s12-5.258 12-11.745v-21.75c0-6.487-5.373-11.745-12-11.745z" opacity="1" data-original="#f6a96c" class=""></path><path fill="#ffbd86" d="M94.527 211.971a12.08 12.08 0 0 0-9.109 4.1c-.188.141-7.61 7.538-7.61 7.538a5 5 0 0 0 4.719 8.394v1.752c0 6.486 5.373 11.745 12 11.745s12-5.258 12-11.745v-10.04c0-6.486-5.373-11.744-12-11.744z" opacity="1" data-original="#ffbd86" class=""></path><path fill="#f6a96c" d="M463.812 349.068c-4.686-4.686-12.203-4.768-16.79-.181l-1.239 1.239a5 5 0 0 0-9.272 2.599v6.673l-11.847 11.847c-4.587 4.587-4.505 12.104.181 16.79s12.203 4.767 16.79.181l15.25-15.25.01-.009 7.099-7.099c4.586-4.587 4.504-12.104-.182-16.79z" opacity="1" data-original="#f6a96c" class=""></path><path fill="#d9e7ec" d="m441.756 388.095-37.441 37.441c-4.587 4.587-12.104 4.505-16.79-.181s-4.767-12.203-.181-16.79l37.441-37.441z" opacity="1" data-original="#d9e7ec" class=""></path><path fill="#f6a96c" d="m262.717 371.246-11.847-11.847v-6.673a5 5 0 0 0-9.272-2.599l-1.239-1.239c-4.587-4.587-12.104-4.505-16.79.181s-4.767 12.203-.181 16.79l7.099 7.099.007.007 15.252 15.252c4.587 4.586 12.104 4.505 16.79-.181s4.768-12.203.181-16.79z" opacity="1" data-original="#f6a96c" class=""></path><path fill="#d9e7ec" d="m245.624 388.095 37.441 37.441c4.587 4.587 12.104 4.505 16.79-.181s4.767-12.203.181-16.79l-37.441-37.441z" opacity="1" data-original="#d9e7ec" class=""></path><path fill="#00429c" d="M330.319 397.5h-31.89c-16.569 0-30 13.432-30 30v77.894a244.711 244.711 0 0 0 26.057-3.894c1.496-.307 2.986-12.994 4.472-13.328a243.3 243.3 0 0 0 61.362-22.821V427.5c-.001-16.568-13.432-30-30.001-30z" opacity="1" data-original="#00429c"></path><path fill="#0055ca" d="M384.486 397.5h-60c-16.569 0-30 13.432-30 30v74c46.02-9.439 87.336-31.783 120-63.083V427.5c0-16.568-13.431-30-30-30z" opacity="1" data-original="#0055ca"></path><path fill="#00429c" d="M136.277 397.5h-30.763c-16.569 0-30 13.432-30 30v10.908a246.149 246.149 0 0 0 26.052 21.73c1.782 1.289 3.581-7.773 5.399-6.532 17.999 12.297 37.723 25.837 58.734 33.021.377-1.899.578-7.444.578-9.455V427.5c0-16.568-13.432-30-30-30z" opacity="1" data-original="#00429c"></path><path fill="#0055ca" d="M191.571 397.5h-60c-16.569 0-30 13.432-30 30v32.631c32.953 23.837 72.069 39.67 114.507 44.662a29.85 29.85 0 0 0 5.493-17.292v-60c0-16.569-13.431-30.001-30-30.001z" opacity="1" data-original="#0055ca"></path><path fill="#596c76" d="M133.456 318.434v-16.167c0-16.142 11.102-29.686 26.086-33.426a34.51 34.51 0 0 0-8.369-1.029h-6.37c-19.029 0-34.455 15.426-34.455 34.455v16.167c0 5.475 4.438 9.914 9.914 9.914h23.109c-5.477 0-9.915-4.439-9.915-9.914z" opacity="1" data-original="#596c76"></path><path fill="#7a8c98" d="M185.628 318.434v-16.167c0-16.711-11.898-30.64-27.685-33.786-15.786 3.146-27.685 17.075-27.685 33.786v16.167c0 5.475 4.438 9.914 9.914 9.914h35.543c5.474 0 9.913-4.439 9.913-9.914z" opacity="1" data-original="#7a8c98"></path><path fill="#ffb509" d="M328.304 327.299a13.56 13.56 0 0 1 8.178-12.461v-12.42c0-12.989 8.186-24.802 18.722-30.718 1.154-.648.932-2.354-.329-2.758-3.297-1.056-7.864-1.129-11.51-1.129h-6.37c-19.029 0-34.455 15.493-34.455 34.606v8.552c0 2.173-1.058 4.185-2.791 5.495a13.551 13.551 0 0 0-5.387 10.834c0 7.488 6.044 13.558 13.499 13.558h27.596s2.917-.841.772-2.283c-3.619-2.434-7.925-6.576-7.925-11.276z" opacity="1" data-original="#ffb509"></path><path fill="#ffc143" d="M387.97 327.24c0-4.454-2.14-8.407-5.446-10.891-1.741-1.308-2.803-3.326-2.803-5.503v-8.595c0-15.751-10.482-29.048-24.848-33.315-14.367 4.266-24.848 17.563-24.848 33.315v8.595c0 2.178-1.062 4.195-2.803 5.503a13.589 13.589 0 0 0-5.446 10.89c0 7.52 6.096 13.617 13.617 13.617h38.961c7.52.001 13.616-6.096 13.616-13.616z" opacity="1" data-original="#ffc143"></path></g></svg>